<svg width="56" height="56" viewBox="0 0 56 56" fill="none" xmlns="http://www.w3.org/2000/svg">
<g filter="url(#filter0_d)">
<circle cx="28" cy="28" r="20" fill="#009390"/>
</g>
<path fill-rule="evenodd" clip-rule="evenodd" d="M28.4108 22.1389C28.2346 22.05 28.0355 22 27.8247 22C27.6105 22 27.4084 22.0517 27.2301 22.1432C27.0038 22.1766 26.7859 22.2788 26.6117 22.4497L20.3249 28.6157C19.8917 29.0406 19.8917 29.7295 20.3249 30.1543C20.7581 30.5792 21.4605 30.5792 21.8937 30.1543L26.5213 25.6156L26.5213 36.6966C26.5213 37.4164 27.1049 38 27.8247 38C28.5446 38 29.1282 37.4164 29.1282 36.6966V25.5914L34.1063 30.474C34.5395 30.8988 35.2419 30.8988 35.6751 30.474C36.1083 30.0491 36.1083 29.3602 35.6751 28.9353L29.0625 22.4498C28.8797 22.2705 28.649 22.1669 28.4108 22.1389Z" fill="white"/>
<path d="M38 19C38 19.5523 37.5523 20 37 20L19 20C18.4477 20 18 19.5523 18 19V19C18 18.4477 18.4477 18 19 18L37 18C37.5523 18 38 18.4477 38 19V19Z" fill="white"/>
<defs>
<filter id="filter0_d" x="0" y="0" width="56" height="56" filterUnits="userSpaceOnUse" color-interpolation-filters="sRGB">
<feFlood flood-opacity="0" result="BackgroundImageFix"/>
<feColorMatrix in="SourceAlpha" type="matrix" values="0 0 0 0 0 0 0 0 0 0 0 0 0 0 0 0 0 0 127 0"/>
<feOffset/>
<feGaussianBlur stdDeviation="4"/>
<feColorMatrix type="matrix" values="0 0 0 0 0 0 0 0 0 0 0 0 0 0 0 0 0 0 0.4 0"/>
<feBlend mode="normal" in2="BackgroundImageFix" result="effect1_dropShadow"/>
<feBlend mode="normal" in="SourceGraphic" in2="effect1_dropShadow" result="shape"/>
</filter>
</defs>
</svg>
